<svg id="Layer_1" data-name="Layer 1" xmlns="http://www.w3.org/2000/svg" viewBox="0 0 1076.71 458.08"><defs><style>.cls-1{fill:none;stroke-width:24px;}.cls-1,.cls-2{stroke:#05796b;stroke-miterlimit:10;}.cls-2{font-size:215px;fill:#05796b;stroke-width:5px;font-family:AvertaCY-Regular, Averta CY;letter-spacing:0.04em;}.cls-3{letter-spacing:0.02em;}.cls-4{letter-spacing:0.03em;}</style></defs><path class="cls-1" d="M1484.13,839.57h8.33c116.56-3.91,87.42-97.72,87.42-97.72-47.13,6.64-71.58,27-83.93,43.52a59.79,59.79,0,0,0-11.82,36v143.3h158.19V605.05H1267.66v359.6H1442.5V886.48c0-78.18-95.74-78.18-95.74-78.18C1334.27,917.75,1442.5,906,1442.5,906" transform="translate(-1255.66 -568.81)"/><path class="cls-1" d="M1440.9,780.94s24.57-97.72-94.19-101.63C1346.71,679.31,1318,773.12,1440.9,780.94Z" transform="translate(-1255.66 -568.81)"/><text class="cls-2" transform="translate(419.34 186.32)">G<tspan class="cls-3" x="170.71" y="0">r</tspan><tspan class="cls-4" x="250.69" y="0">een</tspan><tspan x="0" y="214">Plants</tspan></text></svg>